<svg xmlns="http://www.w3.org/2000/svg" width="500" height="750" viewBox="0 0 500 750"><rect width="100%" height="100%" fill="#DDDDDD"/><path fill="#999999" d="M106.73 375.305h3.82q1.41 0 2.45-.35 1.05-.35 1.74-1.01.69-.65 1.03-1.6.35-.94.35-2.09 0-1.11-.35-2-.34-.89-1.02-1.52-.69-.63-1.73-.96-1.05-.33-2.47-.33h-3.82zm-5.11-13.81h8.93q2.75 0 4.77.64 2.01.65 3.32 1.81t1.95 2.77q.64 1.62.64 3.54 0 1.99-.67 3.65-.66 1.67-1.99 2.86-1.33 1.2-3.34 1.86-2 .67-4.68.67h-3.82v9.67h-5.11zm31.41 7.67q2.16 0 3.94.71 1.78.7 3.04 1.99t1.95 3.15q.68 1.87.68 4.16 0 2.32-.68 4.19-.69 1.86-1.95 3.17t-3.04 2.01-3.94.7q-2.19 0-3.97-.7-1.79-.7-3.05-2.01-1.27-1.31-1.96-3.17-.69-1.87-.69-4.19 0-2.29.69-4.16.69-1.86 1.96-3.15 1.26-1.29 3.05-1.99 1.78-.71 3.97-.71m0 16.48q2.43 0 3.6-1.64 1.17-1.63 1.17-4.79 0-3.15-1.17-4.8-1.17-1.66-3.6-1.66-2.47 0-3.66 1.67-1.19 1.66-1.19 4.79 0 3.14 1.19 4.78 1.19 1.65 3.66 1.65m26.16-14.06-1.06 1.69q-.19.3-.4.42-.21.13-.54.13-.34 0-.73-.19t-.9-.43-1.17-.43q-.65-.19-1.55-.19-1.38 0-2.17.59t-.79 1.54q0 .63.41 1.05.41.43 1.08.75.68.33 1.53.58.86.26 1.74.57.88.3 1.74.69.85.39 1.53.99.67.59 1.08 1.43t.41 2.02q0 1.4-.5 2.59-.51 1.19-1.5 2.05-.98.86-2.44 1.35-1.45.48-3.35.48-1.01 0-1.97-.18t-1.84-.5-1.63-.76q-.76-.44-1.33-.95l1.09-1.79q.21-.32.49-.49.29-.17.72-.17.44 0 .83.25.39.24.9.53.52.28 1.21.53t1.76.25q.83 0 1.43-.2t.99-.53q.39-.32.57-.75.18-.42.18-.88 0-.68-.41-1.12t-1.08-.76q-.68-.32-1.54-.58-.87-.26-1.77-.56t-1.76-.71q-.87-.41-1.54-1.04-.68-.62-1.09-1.54-.41-.91-.41-2.2 0-1.2.48-2.28.47-1.08 1.4-1.89.92-.81 2.3-1.29 1.37-.49 3.18-.49 2.01 0 3.66.67 1.66.66 2.76 1.75m10.24 17.68q-2.55 0-3.9-1.43-1.36-1.43-1.36-3.96v-10.89h-2q-.38 0-.64-.25-.27-.24-.27-.74v-1.86l3.14-.51.98-5.32q.1-.38.36-.59.27-.21.69-.21h2.43v6.14h5.21v3.34h-5.21v10.56q0 .92.45 1.43.44.51 1.22.51.44 0 .73-.1.3-.11.52-.22t.39-.22q.17-.1.34-.1.21 0 .34.1.13.11.29.31l1.4 2.28q-1.02.86-2.35 1.3-1.33.43-2.76.43m11.34-12.29h8.86q0-.91-.26-1.72t-.77-1.41q-.51-.61-1.3-.96t-1.83-.35q-2.04 0-3.2 1.15-1.17 1.16-1.5 3.29m11.97 2.83h-12.06q.11 1.5.53 2.6.42 1.09 1.1 1.8.69.71 1.63 1.06.94.36 2.08.36t1.96-.27q.83-.27 1.45-.59t1.08-.59q.47-.26.9-.26.59 0 .88.43l1.35 1.71q-.78.92-1.75 1.53-.97.62-2.02.99-1.06.37-2.15.52t-2.12.15q-2.03 0-3.78-.67t-3.04-1.99q-1.29-1.33-2.03-3.27-.75-1.95-.75-4.51 0-2 .65-3.76.65-1.75 1.85-3.06 1.21-1.3 2.95-2.06t3.92-.76q1.84 0 3.4.59t2.68 1.72 1.76 2.77q.64 1.65.64 3.76 0 1.06-.23 1.43t-.88.37m8.76-9.16.29 2.21q.91-1.75 2.16-2.75 1.26-1 2.97-1 1.35 0 2.16.59l-.3 3.52q-.1.34-.28.48-.18.15-.48.15-.29 0-.85-.1-.56-.09-1.09-.09-.78 0-1.39.22-.6.23-1.09.66-.48.43-.85 1.04-.37.6-.7 1.38v12.01h-4.69v-19.49h2.76q.72 0 1 .25.29.26.38.92m38.67-9.15h4.5v27.47h-2.62q-.61 0-1.02-.2t-.79-.67l-14.34-18.32q.11 1.25.11 2.32v16.87h-4.5v-27.47h2.68q.32 0 .56.02.24.03.42.12.18.08.35.25.17.16.38.42l14.4 18.39q-.06-.66-.09-1.31-.04-.64-.04-1.19zm18.5 7.67q2.17 0 3.95.71 1.77.7 3.04 1.99 1.26 1.29 1.94 3.15.69 1.87.69 4.16 0 2.32-.69 4.19-.68 1.86-1.94 3.17-1.27 1.31-3.04 2.01-1.78.7-3.95.7-2.18 0-3.97-.7-1.78-.7-3.05-2.01-1.26-1.31-1.95-3.17-.7-1.87-.7-4.19 0-2.29.7-4.16.69-1.86 1.95-3.15 1.27-1.29 3.05-1.99 1.79-.71 3.97-.71m0 16.48q2.44 0 3.6-1.64 1.17-1.63 1.17-4.79 0-3.15-1.17-4.8-1.16-1.66-3.6-1.66-2.47 0-3.65 1.67-1.19 1.66-1.19 4.79 0 3.14 1.19 4.78 1.18 1.65 3.65 1.65m19.71 3.62q-2.55 0-3.91-1.43t-1.36-3.96v-10.89h-1.99q-.38 0-.65-.25-.26-.24-.26-.74v-1.86l3.13-.51.99-5.32q.09-.38.36-.59t.68-.21h2.44v6.14h5.2v3.34h-5.2v10.56q0 .92.44 1.43.45.51 1.23.51.44 0 .73-.1.29-.11.51-.22t.39-.22q.17-.1.34-.1.21 0 .35.1.13.11.28.31l1.41 2.28q-1.03.86-2.36 1.3-1.33.43-2.75.43m34.94-23.71h-12.2v8.13h10.3v4.09h-10.3v11.19h-5.13v-27.47h17.33zm12.06 3.61q2.17 0 3.95.71 1.77.7 3.04 1.99 1.26 1.29 1.94 3.15.69 1.87.69 4.16 0 2.32-.69 4.19-.68 1.86-1.94 3.17-1.27 1.31-3.04 2.01-1.78.7-3.95.7-2.18 0-3.97-.7-1.78-.7-3.05-2.01-1.26-1.31-1.95-3.17-.7-1.87-.7-4.19 0-2.29.7-4.16.69-1.86 1.95-3.15 1.27-1.29 3.05-1.99 1.79-.71 3.97-.71m0 16.48q2.43 0 3.6-1.64 1.17-1.63 1.17-4.79 0-3.15-1.17-4.8-1.17-1.66-3.6-1.66-2.47 0-3.65 1.67-1.19 1.66-1.19 4.79 0 3.14 1.19 4.78 1.18 1.65 3.65 1.65m25.31-16.17h4.69v19.49h-2.87q-.93 0-1.17-.85l-.33-1.56q-1.19 1.21-2.64 1.96-1.44.75-3.4.75-1.59 0-2.82-.54t-2.06-1.53q-.84-.98-1.26-2.34-.43-1.36-.43-3v-12.38h4.69v12.38q0 1.79.83 2.77.82.98 2.48.98 1.21 0 2.28-.54 1.06-.55 2.01-1.5zm13.4.85.32 1.54q.59-.59 1.24-1.09.66-.51 1.39-.86t1.57-.55q.83-.2 1.82-.2 1.6 0 2.83.54 1.24.55 2.06 1.52.83.98 1.26 2.34t.43 2.99v12.41h-4.7v-12.41q0-1.78-.81-2.76-.82-.98-2.49-.98-1.22 0-2.28.55-1.07.55-2.02 1.5v14.1h-4.69v-19.49h2.87q.91 0 1.2.85m29.6 12.86v-8.74q-.8-.96-1.74-1.36t-2.02-.4q-1.07 0-1.92.4-.86.4-1.47 1.2-.6.81-.93 2.05-.32 1.25-.32 2.94 0 1.71.28 2.9.27 1.19.78 1.94.52.75 1.26 1.08t1.65.33q1.46 0 2.49-.61t1.94-1.73m0-22.45h4.69v28.23h-2.87q-.93 0-1.18-.85l-.4-1.89q-1.17 1.35-2.7 2.19-1.53.83-3.57.83-1.59 0-2.92-.66t-2.29-1.93q-.96-1.26-1.48-3.12-.53-1.87-.53-4.26 0-2.17.59-4.03t1.69-3.23q1.11-1.37 2.65-2.14 1.53-.77 3.45-.77 1.64 0 2.8.52 1.16.51 2.07 1.39z"/></svg>