<svg width="36" height="36" viewBox="0 0 36 36" fill="none" xmlns="http://www.w3.org/2000/svg">
  <path
    d="M2.8129 8.36158C2.8129 5.63631 5.09492 3.41912 7.89986 3.41912H27.7406C30.5457 3.41912 32.8276 5.63631 32.8276 8.36158V27.6388C32.8276 30.364 30.5457 32.5813 27.7406 32.5813H7.89986C5.09492 32.5813 2.8129 30.364 2.8129 27.6388V8.36158ZM7.89986 35.3138H27.7406C32.0967 35.3138 35.6406 31.8711 35.6406 27.6388V8.36158C35.6406 4.1293 32.0967 0.686142 27.7406 0.686142H7.89986C3.54383 0.686142 0 4.1293 0 8.36158V27.6388C0 31.8711 3.54383 35.3138 7.89986 35.3138Z"
    fill="#EEEEF0" />
</svg>