<svg width="247" height="36" viewBox="0 0 247 36" fill="none" xmlns="http://www.w3.org/2000/svg">
<g clip-path="url(#clip0_894_1616)">
<path d="M155.347 17.3199H150.387H145.427C144.412 17.3199 143.586 16.5178 143.586 15.5318V13.8669C143.586 12.8813 144.412 12.0788 145.427 12.0788H157.89C158.667 12.0788 159.297 11.4672 159.297 10.7125C159.297 9.95777 158.667 9.34618 157.89 9.34618H145.427C142.861 9.34618 140.774 11.3743 140.774 13.8669V15.5318C140.774 18.0247 142.861 20.0528 145.427 20.0528H150.387H155.347C156.362 20.0528 157.188 20.855 157.188 21.8405V23.5056C157.188 24.4915 156.362 25.2936 155.347 25.2936H142.18C141.403 25.2936 140.774 25.9054 140.774 26.6598C140.774 27.4147 141.403 28.0265 142.18 28.0265H155.347C157.913 28.0265 160 25.9984 160 23.5056V21.8405C160 19.3479 157.913 17.3199 155.347 17.3199Z" fill="#EEEEF0"/>
<path d="M134.304 23.5055C134.304 24.4915 133.479 25.2936 132.464 25.2936H122.543C121.529 25.2936 120.703 24.4915 120.703 23.5055V13.8669C120.703 12.881 121.529 12.0789 122.543 12.0789H132.464C133.479 12.0789 134.304 12.881 134.304 13.8669V23.5055ZM132.464 9.34624H122.543C119.978 9.34624 117.891 11.3743 117.891 13.8669V23.5055C117.891 25.9985 119.978 28.0262 122.543 28.0262H132.464C135.03 28.0262 137.117 25.9985 137.117 23.5055V13.8669C137.117 11.3743 135.03 9.34624 132.464 9.34624Z" fill="#EEEEF0"/>
<path d="M111.421 23.5055C111.421 24.4915 110.596 25.2936 109.581 25.2936H97.82V20.0525H109.581C110.596 20.0525 111.421 20.8546 111.421 21.8405V23.5055ZM111.421 13.8669V15.5318C111.421 16.5178 110.596 17.3199 109.581 17.3199H97.82V12.0789H109.581C110.596 12.0789 111.421 12.881 111.421 13.8669ZM109.581 9.34624H96.4137C96.171 9.34624 95.9428 9.40588 95.7436 9.51115C95.6637 9.55325 95.5886 9.60238 95.5192 9.65816C95.4498 9.71395 95.386 9.7757 95.3286 9.84343C95.1278 10.0796 95.0076 10.3824 95.0076 10.7126V26.66C95.0076 27.1789 95.3052 27.6302 95.7436 27.8617C95.9428 27.9666 96.171 28.0262 96.4137 28.0262H109.581C112.147 28.0262 114.234 25.9985 114.234 23.5055V21.8405C114.234 20.6146 113.728 19.5014 112.909 18.6863C113.728 17.8712 114.234 16.7578 114.234 15.5318V13.8669C114.234 11.3743 112.147 9.34624 109.581 9.34624Z" fill="#EEEEF0"/>
<path d="M89.9446 9.34607C89.1679 9.34607 88.5385 9.958 88.5385 10.7124V23.5054C88.5385 24.4913 87.7129 25.2934 86.6982 25.2934H76.7777C75.7629 25.2934 74.9373 24.4913 74.9373 23.5054V10.7124C74.9373 9.958 74.3079 9.34607 73.531 9.34607C72.7542 9.34607 72.1245 9.958 72.1245 10.7124V23.5054C72.1245 25.9984 74.2118 28.0265 76.7777 28.0265H86.6982C89.2635 28.0265 91.351 25.9984 91.351 23.5054V10.7124C91.351 9.958 90.7216 9.34607 89.9446 9.34607Z" fill="#EEEEF0"/>
<path d="M53.8945 12.079H67.0617C67.8384 12.079 68.4678 11.4674 68.4678 10.7127C68.4678 9.95791 67.8384 9.34598 67.0617 9.34598H53.8945C51.3291 9.34598 49.2417 11.3741 49.2417 13.867V23.5055C49.2417 25.9982 51.3291 28.0263 53.8945 28.0263H67.0617C67.8384 28.0263 68.4678 27.4148 68.4678 26.66C68.4678 25.9053 67.8384 25.2938 67.0617 25.2938H53.8945C52.8798 25.2938 52.0542 24.4916 52.0542 23.5055V13.867C52.0542 12.8811 52.8798 12.079 53.8945 12.079Z" fill="#EEEEF0"/>
<path d="M2.8129 9.04774C2.8129 6.32247 5.09492 4.10528 7.89986 4.10528H27.7406C30.5457 4.10528 32.8276 6.32247 32.8276 9.04774V28.325C32.8276 31.0502 30.5457 33.2674 27.7406 33.2674H7.89986C5.09492 33.2674 2.8129 31.0502 2.8129 28.325V9.04774ZM7.89986 36H27.7406C32.0967 36 35.6406 32.5573 35.6406 28.325V9.04774C35.6406 4.81546 32.0967 1.3723 27.7406 1.3723H7.89986C3.54383 1.3723 0 4.81546 0 9.04774V28.325C0 32.5573 3.54383 36 7.89986 36Z" fill="#EEEEF0"/>
</g>
<path d="M177.481 10.4545H181.274L185.279 20.2273H185.45L189.455 10.4545H193.248V25H190.265V15.5327H190.144L186.38 24.929H184.349L180.585 15.4972H180.464V25H177.481V10.4545ZM200.654 25.2131C199.551 25.2131 198.597 24.9787 197.792 24.5099C196.992 24.0365 196.374 23.3783 195.938 22.5355C195.502 21.688 195.285 20.7055 195.285 19.5881C195.285 18.4612 195.502 17.4763 195.938 16.6335C196.374 15.786 196.992 15.1278 197.792 14.6591C198.597 14.1856 199.551 13.9489 200.654 13.9489C201.757 13.9489 202.709 14.1856 203.509 14.6591C204.314 15.1278 204.934 15.786 205.37 16.6335C205.805 17.4763 206.023 18.4612 206.023 19.5881C206.023 20.7055 205.805 21.688 205.37 22.5355C204.934 23.3783 204.314 24.0365 203.509 24.5099C202.709 24.9787 201.757 25.2131 200.654 25.2131ZM200.668 22.8693C201.17 22.8693 201.589 22.7273 201.925 22.4432C202.261 22.1544 202.515 21.7614 202.685 21.2642C202.86 20.767 202.948 20.2012 202.948 19.5668C202.948 18.9323 202.86 18.3665 202.685 17.8693C202.515 17.3722 202.261 16.9792 201.925 16.6903C201.589 16.4015 201.17 16.2571 200.668 16.2571C200.162 16.2571 199.735 16.4015 199.39 16.6903C199.049 16.9792 198.791 17.3722 198.616 17.8693C198.445 18.3665 198.36 18.9323 198.36 19.5668C198.36 20.2012 198.445 20.767 198.616 21.2642C198.791 21.7614 199.049 22.1544 199.39 22.4432C199.735 22.7273 200.162 22.8693 200.668 22.8693ZM217.809 14.0909L213.996 25H210.586L206.773 14.0909H209.969L212.234 21.8963H212.348L214.606 14.0909H217.809ZM219.358 25V14.0909H222.383V25H219.358ZM220.878 12.6847C220.428 12.6847 220.042 12.5355 219.72 12.2372C219.403 11.9342 219.244 11.572 219.244 11.1506C219.244 10.7339 219.403 10.3764 219.72 10.0781C220.042 9.77509 220.428 9.62358 220.878 9.62358C221.327 9.62358 221.711 9.77509 222.028 10.0781C222.35 10.3764 222.511 10.7339 222.511 11.1506C222.511 11.572 222.35 11.9342 222.028 12.2372C221.711 12.5355 221.327 12.6847 220.878 12.6847ZM229.779 25.2131C228.656 25.2131 227.691 24.9858 226.881 24.5312C226.076 24.072 225.456 23.4233 225.02 22.5852C224.584 21.7424 224.367 20.7457 224.367 19.5952C224.367 18.473 224.584 17.4882 225.02 16.6406C225.456 15.7931 226.069 15.1326 226.86 14.6591C227.655 14.1856 228.588 13.9489 229.658 13.9489C230.378 13.9489 231.048 14.0649 231.668 14.2969C232.293 14.5241 232.837 14.8674 233.301 15.3267C233.77 15.786 234.135 16.3636 234.395 17.0597C234.655 17.7509 234.786 18.5606 234.786 19.4886V20.3196H225.574V18.4446H231.938C231.938 18.009 231.843 17.6231 231.654 17.2869C231.464 16.9508 231.201 16.688 230.865 16.4986C230.534 16.3045 230.148 16.2074 229.708 16.2074C229.248 16.2074 228.841 16.3139 228.486 16.527C228.136 16.7353 227.861 17.017 227.662 17.3722C227.463 17.7225 227.361 18.1132 227.357 18.544V20.3267C227.357 20.8665 227.456 21.3329 227.655 21.7259C227.859 22.1188 228.145 22.4219 228.514 22.6349C228.884 22.848 229.322 22.9545 229.828 22.9545C230.164 22.9545 230.472 22.9072 230.752 22.8125C231.031 22.7178 231.27 22.5758 231.469 22.3864C231.668 22.197 231.819 21.965 231.923 21.6903L234.722 21.875C234.58 22.5473 234.289 23.1345 233.848 23.6364C233.413 24.1335 232.849 24.5218 232.158 24.8011C231.471 25.0758 230.678 25.2131 229.779 25.2131ZM245.837 17.2017L243.067 17.3722C243.02 17.1354 242.918 16.9223 242.762 16.733C242.605 16.5388 242.399 16.3849 242.144 16.2713C241.893 16.1529 241.592 16.0938 241.242 16.0938C240.773 16.0938 240.378 16.1932 240.056 16.392C239.734 16.5862 239.573 16.8466 239.573 17.1733C239.573 17.4337 239.677 17.6539 239.885 17.8338C240.093 18.0137 240.451 18.1581 240.958 18.267L242.932 18.6648C243.993 18.8826 244.783 19.233 245.304 19.7159C245.825 20.1989 246.085 20.8333 246.085 21.6193C246.085 22.3343 245.875 22.9616 245.453 23.5014C245.037 24.0412 244.464 24.4626 243.735 24.7656C243.01 25.0639 242.174 25.2131 241.227 25.2131C239.783 25.2131 238.633 24.9124 237.776 24.3111C236.923 23.705 236.424 22.8812 236.277 21.8395L239.253 21.6832C239.343 22.1236 239.561 22.4598 239.906 22.6918C240.252 22.919 240.695 23.0327 241.235 23.0327C241.765 23.0327 242.191 22.9309 242.513 22.7273C242.84 22.5189 243.005 22.2514 243.01 21.9247C243.005 21.6501 242.889 21.4252 242.662 21.25C242.435 21.0701 242.084 20.9328 241.611 20.8381L239.722 20.4616C238.656 20.2486 237.863 19.8793 237.343 19.3537C236.826 18.8281 236.568 18.1581 236.568 17.3438C236.568 16.643 236.758 16.0393 237.137 15.5327C237.52 15.026 238.057 14.6354 238.749 14.3608C239.445 14.0862 240.259 13.9489 241.192 13.9489C242.57 13.9489 243.654 14.2401 244.445 14.8224C245.24 15.4048 245.704 16.1979 245.837 17.2017Z" fill="#EEEEF0"/>
<defs>
<clipPath id="clip0_894_1616">
<rect width="160" height="36" fill="white"/>
</clipPath>
</defs>
</svg>
