<svg width="123" height="36" viewBox="0 0 123 36" fill="none" xmlns="http://www.w3.org/2000/svg">
<path d="M2.8129 8.36159C2.8129 5.63633 5.09492 3.41914 7.89986 3.41914H27.7406C30.5457 3.41914 32.8276 5.63633 32.8276 8.36159V27.6388C32.8276 30.364 30.5457 32.5813 27.7406 32.5813H7.89986C5.09492 32.5813 2.8129 30.364 2.8129 27.6388V8.36159ZM7.89986 35.3139H27.7406C32.0967 35.3139 35.6406 31.8711 35.6406 27.6388V8.36159C35.6406 4.12932 32.0967 0.686157 27.7406 0.686157H7.89986C3.54383 0.686157 0 4.12932 0 8.36159V27.6388C0 31.8711 3.54383 35.3139 7.89986 35.3139Z" fill="#EEEEF0"/>
<path d="M53.1216 10.4545H56.9142L60.9199 20.2273H61.0904L65.0961 10.4545H68.8887V25H65.9057V15.5327H65.785L62.0208 24.929H59.9895L56.2253 15.4972H56.1046V25H53.1216V10.4545ZM76.2946 25.2131C75.1913 25.2131 74.2373 24.9787 73.4324 24.5099C72.6322 24.0365 72.0143 23.3783 71.5787 22.5355C71.1431 21.688 70.9252 20.7055 70.9252 19.5881C70.9252 18.4612 71.1431 17.4763 71.5787 16.6335C72.0143 15.786 72.6322 15.1278 73.4324 14.6591C74.2373 14.1856 75.1913 13.9489 76.2946 13.9489C77.3978 13.9489 78.3495 14.1856 79.1497 14.6591C79.9546 15.1278 80.5749 15.786 81.0105 16.6335C81.4461 17.4763 81.6639 18.4612 81.6639 19.5881C81.6639 20.7055 81.4461 21.688 81.0105 22.5355C80.5749 23.3783 79.9546 24.0365 79.1497 24.5099C78.3495 24.9787 77.3978 25.2131 76.2946 25.2131ZM76.3088 22.8693C76.8107 22.8693 77.2297 22.7273 77.5659 22.4432C77.902 22.1544 78.1554 21.7614 78.3258 21.2642C78.501 20.767 78.5886 20.2012 78.5886 19.5668C78.5886 18.9323 78.501 18.3665 78.3258 17.8693C78.1554 17.3722 77.902 16.9792 77.5659 16.6903C77.2297 16.4015 76.8107 16.2571 76.3088 16.2571C75.8021 16.2571 75.376 16.4015 75.0304 16.6903C74.6895 16.9792 74.4314 17.3722 74.2562 17.8693C74.0858 18.3665 74.0005 18.9323 74.0005 19.5668C74.0005 20.2012 74.0858 20.767 74.2562 21.2642C74.4314 21.7614 74.6895 22.1544 75.0304 22.4432C75.376 22.7273 75.8021 22.8693 76.3088 22.8693ZM93.4501 14.0909L89.6362 25H86.2271L82.4132 14.0909H85.6092L87.8748 21.8963H87.9885L90.247 14.0909H93.4501ZM94.9984 25V14.0909H98.024V25H94.9984ZM96.5183 12.6847C96.0685 12.6847 95.6826 12.5355 95.3606 12.2372C95.0434 11.9342 94.8848 11.572 94.8848 11.1506C94.8848 10.7339 95.0434 10.3764 95.3606 10.0781C95.6826 9.77509 96.0685 9.62358 96.5183 9.62358C96.9681 9.62358 97.3516 9.77509 97.6689 10.0781C97.9908 10.3764 98.1518 10.7339 98.1518 11.1506C98.1518 11.572 97.9908 11.9342 97.6689 12.2372C97.3516 12.5355 96.9681 12.6847 96.5183 12.6847ZM105.419 25.2131C104.297 25.2131 103.331 24.9858 102.521 24.5312C101.717 24.072 101.096 23.4233 100.661 22.5852C100.225 21.7424 100.007 20.7457 100.007 19.5952C100.007 18.473 100.225 17.4882 100.661 16.6406C101.096 15.7931 101.709 15.1326 102.5 14.6591C103.296 14.1856 104.228 13.9489 105.298 13.9489C106.018 13.9489 106.688 14.0649 107.308 14.2969C107.933 14.5241 108.478 14.8674 108.942 15.3267C109.411 15.786 109.775 16.3636 110.036 17.0597C110.296 17.7509 110.426 18.5606 110.426 19.4886V20.3196H101.215V18.4446H107.578C107.578 18.009 107.484 17.6231 107.294 17.2869C107.105 16.9508 106.842 16.688 106.506 16.4986C106.174 16.3045 105.789 16.2074 105.348 16.2074C104.889 16.2074 104.482 16.3139 104.127 16.527C103.776 16.7353 103.502 17.017 103.303 17.3722C103.104 17.7225 103.002 18.1132 102.997 18.544V20.3267C102.997 20.8665 103.097 21.3329 103.296 21.7259C103.499 22.1188 103.786 22.4219 104.155 22.6349C104.524 22.848 104.962 22.9545 105.469 22.9545C105.805 22.9545 106.113 22.9072 106.392 22.8125C106.672 22.7178 106.911 22.5758 107.11 22.3864C107.308 22.197 107.46 21.965 107.564 21.6903L110.362 21.875C110.22 22.5473 109.929 23.1345 109.489 23.6364C109.053 24.1335 108.49 24.5218 107.798 24.8011C107.112 25.0758 106.319 25.2131 105.419 25.2131ZM121.477 17.2017L118.708 17.3722C118.66 17.1354 118.558 16.9223 118.402 16.733C118.246 16.5388 118.04 16.3849 117.784 16.2713C117.533 16.1529 117.233 16.0938 116.882 16.0938C116.414 16.0938 116.018 16.1932 115.696 16.392C115.374 16.5862 115.213 16.8466 115.213 17.1733C115.213 17.4337 115.317 17.6539 115.526 17.8338C115.734 18.0137 116.092 18.1581 116.598 18.267L118.573 18.6648C119.633 18.8826 120.424 19.233 120.945 19.7159C121.466 20.1989 121.726 20.8333 121.726 21.6193C121.726 22.3343 121.515 22.9616 121.094 23.5014C120.677 24.0412 120.104 24.4626 119.375 24.7656C118.651 25.0639 117.815 25.2131 116.868 25.2131C115.424 25.2131 114.273 24.9124 113.416 24.3111C112.564 23.705 112.065 22.8812 111.918 21.8395L114.894 21.6832C114.984 22.1236 115.201 22.4598 115.547 22.6918C115.893 22.919 116.335 23.0327 116.875 23.0327C117.405 23.0327 117.832 22.9309 118.154 22.7273C118.48 22.5189 118.646 22.2514 118.651 21.9247C118.646 21.6501 118.53 21.4252 118.303 21.25C118.075 21.0701 117.725 20.9328 117.252 20.8381L115.362 20.4616C114.297 20.2486 113.504 19.8793 112.983 19.3537C112.467 18.8281 112.209 18.1581 112.209 17.3438C112.209 16.643 112.398 16.0393 112.777 15.5327C113.161 15.026 113.698 14.6354 114.389 14.3608C115.085 14.0862 115.9 13.9489 116.833 13.9489C118.21 13.9489 119.295 14.2401 120.085 14.8224C120.881 15.4048 121.345 16.1979 121.477 17.2017Z" fill="#EEEEF0"/>
</svg>
